<?xml version="1.0" standalone="no"?>
<!DOCTYPE svg PUBLIC "-//W3C//DTD SVG 20010904//EN"
 "http://www.w3.org/TR/2001/REC-SVG-20010904/DTD/svg10.dtd">
<svg version="1.0" xmlns="http://www.w3.org/2000/svg"
 width="500.000000pt" height="500.000000pt" viewBox="0 0 500.000000 500.000000"
 preserveAspectRatio="xMidYMid meet">

<g transform="translate(0.000000,500.000000) scale(0.100000,-0.100000)"
fill="#000000" stroke="none">
<path d="M1105 3046 c-17 -7 -43 -28 -58 -45 -50 -60 -31 -172 38 -217 37 -24
118 -23 153 3 51 37 74 83 70 134 -6 57 -31 93 -84 119 -47 23 -77 25 -119 6z"/>
<path d="M1574 3041 c-53 -32 -74 -68 -74 -126 0 -63 28 -111 80 -137 98 -50
210 21 210 132 0 112 -124 187 -216 131z"/>
<path d="M606 2539 c-71 -12 -108 -83 -71 -136 8 -12 39 -29 68 -38 69 -23 97
-41 97 -65 0 -44 -73 -52 -136 -16 l-42 24 -10 -23 c-13 -27 -5 -37 51 -60 45
-19 98 -19 142 -1 38 16 55 42 55 84 0 43 -27 69 -99 94 -71 26 -93 47 -72 72
16 19 79 21 116 4 22 -10 28 -9 36 3 5 8 9 19 9 25 0 24 -85 43 -144 33z"/>
<path d="M4146 2539 c-71 -12 -108 -83 -71 -136 8 -12 39 -29 68 -38 69 -23
97 -41 97 -65 0 -44 -73 -52 -136 -16 l-42 24 -10 -23 c-13 -27 -5 -37 51 -60
45 -19 98 -19 142 -1 38 16 55 42 55 84 0 43 -27 69 -99 94 -71 26 -93 47 -72
72 16 19 79 21 116 4 22 -10 28 -9 36 3 5 8 9 19 9 25 0 24 -85 43 -144 33z"/>
<path d="M1040 2375 l0 -165 120 0 120 0 0 25 c0 25 0 25 -95 25 l-95 0 0 45
0 45 85 0 c84 0 85 0 85 25 0 24 -2 24 -82 27 l-83 3 -3 42 -3 42 93 3 c88 3
93 4 96 26 3 22 2 22 -117 22 l-121 0 0 -165z"/>
<path d="M1560 2376 l0 -166 30 0 c29 0 30 1 30 50 l0 50 48 0 c46 0 48 -1 75
-50 24 -42 33 -50 58 -50 16 0 29 3 29 6 0 3 -13 25 -30 49 -31 45 -37 65 -20
65 19 0 50 64 50 102 0 27 -8 47 -29 70 -29 33 -30 33 -135 36 l-106 4 0 -166z
m200 94 c51 -51 4 -110 -86 -110 l-54 0 0 65 0 65 60 0 c47 0 64 -4 80 -20z"/>
<path d="M2084 2522 c4 -10 32 -84 64 -163 55 -137 60 -144 88 -147 29 -2 30
-1 96 163 l67 166 -30 -3 c-29 -3 -33 -8 -76 -123 -25 -66 -48 -123 -52 -128
-4 -4 -29 51 -56 123 -47 125 -50 130 -78 130 -23 0 -27 -3 -23 -18z"/>
<path d="M2650 2375 l0 -165 30 0 30 0 0 165 0 165 -30 0 -30 0 0 -165z"/>
<path d="M3090 2533 c-59 -22 -109 -95 -110 -157 0 -16 9 -49 21 -73 38 -79
138 -115 222 -80 46 20 62 41 42 57 -12 10 -21 9 -49 -4 -19 -9 -46 -16 -61
-16 -95 0 -150 117 -89 189 41 50 106 59 162 23 21 -13 25 -13 39 0 19 20 10
36 -33 54 -33 14 -115 18 -144 7z"/>
<path d="M3550 2375 l0 -165 120 0 120 0 0 25 c0 25 0 25 -95 25 l-95 0 0 45
0 45 85 0 c84 0 85 0 85 25 0 24 -2 24 -82 27 l-83 3 -3 42 -3 42 93 3 c88 3
93 4 96 26 3 22 2 22 -117 22 l-121 0 0 -165z"/>
<path d="M560 1916 c-21 -27 -8 -60 33 -79 20 -9 37 -24 37 -32 0 -21 -31 -34
-64 -28 -20 4 -27 2 -22 -6 19 -30 106 -3 106 33 0 16 -29 42 -57 50 -22 7
-37 32 -27 47 3 5 21 9 40 9 21 0 33 4 29 10 -9 15 -61 12 -75 -4z"/>
<path d="M750 1845 l0 -85 45 0 c25 0 45 5 45 10 0 6 -18 10 -40 10 -38 0 -40
2 -40 30 0 28 3 30 35 30 19 0 35 5 35 10 0 6 -16 10 -35 10 -31 0 -35 3 -35
25 0 23 4 25 40 25 22 0 40 5 40 10 0 6 -20 10 -45 10 l-45 0 0 -85z"/>
<path d="M940 1845 c0 -50 4 -85 10 -85 6 0 10 16 10 35 0 27 4 35 18 35 10 0
26 -15 36 -35 11 -19 23 -35 28 -35 12 0 10 5 -12 43 -18 30 -19 35 -5 41 9 3
15 18 15 35 0 35 -22 51 -69 51 l-31 0 0 -85z m75 35 c0 -20 -6 -26 -27 -28
-25 -3 -28 0 -28 28 0 28 3 31 28 28 21 -2 27 -8 27 -28z"/>
<path d="M1130 1923 c0 -21 56 -163 65 -163 8 0 65 142 65 163 0 13 -20 7 -21
-5 0 -7 -10 -40 -23 -73 l-23 -60 -22 68 c-19 58 -41 95 -41 70z"/>
<path d="M1350 1845 c0 -50 4 -85 10 -85 6 0 10 35 10 85 0 50 -4 85 -10 85
-6 0 -10 -35 -10 -85z"/>
<path d="M1470 1920 c0 -5 18 -10 40 -10 22 0 40 -2 40 -6 0 -3 -18 -32 -40
-64 -22 -32 -40 -64 -40 -69 0 -7 23 -11 55 -11 30 0 55 5 55 10 0 6 -20 10
-45 10 l-46 0 41 60 c61 90 61 90 -4 90 -31 0 -56 -4 -56 -10z"/>
<path d="M1680 1845 c0 -50 4 -85 10 -85 6 0 10 35 10 85 0 50 -4 85 -10 85
-6 0 -10 -35 -10 -85z"/>
<path d="M1937 1923 c-11 -11 -8 -163 3 -163 6 0 10 16 10 35 0 32 2 35 29 35
56 0 81 55 39 84 -23 16 -69 21 -81 9z m80 -29 c9 -24 -10 -49 -41 -52 -24 -3
-26 0 -26 32 0 33 2 36 30 36 19 0 33 -6 37 -16z"/>
<path d="M2140 1845 l0 -85 45 0 c25 0 45 5 45 10 0 6 -16 10 -35 10 -32 0
-35 2 -35 30 0 28 3 30 36 30 21 0 33 4 29 10 -3 6 -19 10 -36 10 -24 0 -29 4
-29 25 0 22 4 25 35 25 19 0 35 5 35 10 0 6 -20 10 -45 10 l-45 0 0 -85z"/>
<path d="M2337 1923 c-11 -11 -8 -163 3 -163 6 0 10 16 10 35 0 28 4 35 19 35
11 0 28 -15 40 -35 11 -19 25 -35 31 -35 7 0 2 16 -10 35 -21 33 -21 37 -6 54
22 24 20 47 -6 65 -23 16 -69 21 -81 9z m78 -43 c0 -21 -5 -26 -32 -28 -31 -3
-33 -1 -33 28 0 29 2 31 33 28 27 -2 32 -7 32 -28z"/>
<path d="M2546 1914 c-9 -8 -16 -21 -16 -28 0 -15 32 -46 47 -46 5 0 17 -8 26
-18 23 -25 6 -46 -37 -44 -20 1 -36 -3 -36 -8 0 -16 76 -12 90 4 21 27 8 60
-33 79 -50 23 -47 51 6 55 20 2 35 7 32 13 -10 15 -62 10 -79 -7z"/>
<path d="M2750 1910 c-14 -14 -20 -33 -20 -65 0 -56 25 -85 73 -85 47 0 72 30
72 87 0 35 -5 49 -24 64 -30 25 -76 24 -101 -1z m94 -22 c45 -64 -17 -146 -75
-100 -26 22 -32 80 -10 106 20 24 67 20 85 -6z"/>
<path d="M2980 1845 c0 -100 18 -115 22 -19 l3 66 42 -66 c23 -36 47 -66 53
-66 6 0 10 33 10 86 0 54 -4 83 -10 79 -5 -3 -10 -34 -10 -68 l0 -62 -45 68
c-25 37 -50 67 -55 67 -6 0 -10 -36 -10 -85z"/>
<path d="M3235 1853 c-17 -42 -31 -80 -33 -85 -2 -4 1 -8 7 -8 6 0 13 11 17
25 5 21 12 25 45 25 33 0 40 -4 45 -25 6 -23 24 -36 24 -17 0 14 -62 162 -69
162 -3 0 -20 -35 -36 -77z m53 10 c10 -31 10 -33 -14 -33 -27 0 -29 6 -14 46
12 31 13 30 28 -13z"/>
<path d="M3438 1924 c-5 -4 -8 -43 -8 -86 l0 -78 51 0 c31 0 48 4 44 10 -3 6
-21 10 -40 10 l-34 0 -3 76 c-2 42 -6 72 -10 68z"/>
<path d="M3620 1845 c0 -50 4 -85 10 -85 6 0 10 35 10 85 0 50 -4 85 -10 85
-6 0 -10 -35 -10 -85z"/>
</g>
</svg>
